<?xml version="1.0" encoding="UTF-8"?>
<svg id="Layer_1" xmlns="http://www.w3.org/2000/svg" version="1.1" viewBox="0 0 200 200">
  <!-- Generator: Adobe Illustrator 29.6.1, SVG Export Plug-In . SVG Version: 2.1.1 Build 9)  -->
  <defs>
    <style>
      .st0 {
        fill: none;
      }

      .st1 {
        fill: #ee8e31;
      }

      .st1, .st2 {
        fill-rule: evenodd;
      }

      .st2 {
        fill: #f4c14b;
      }
    </style>
  </defs>
  <polygon class="st0" points="192.32 228.01 188.8 230.61 188.8 228.01 192.32 228.01"/>
  <g>
    <polygon class="st2" points="195.25 14.57 195.25 90.73 159.68 62.1 4.75 174.11 4.75 101.3 135.73 4.75 182.34 4.75 195.25 14.57"/>
    <polygon class="st2" points="109.65 4.75 4.75 80.59 4.75 7.35 8.27 4.75 109.65 4.75"/>
    <polygon class="st0" points="135.73 4.75 4.75 101.3 4.75 80.59 109.65 4.75 135.73 4.75"/>
    <polygon class="st1" points="195.25 109.52 195.25 185.75 158.38 156.07 104.55 195.25 5.95 195.25 158.09 81.28 195.25 109.52"/>
    <polygon class="st0" points="195.25 90.73 195.25 109.52 158.09 81.28 5.95 195.25 4.75 195.25 4.75 174.11 159.68 62.1 195.25 90.73"/>
    <polygon class="st0" points="158.38 156.07 195.25 185.75 195.25 195.25 104.55 195.25 158.38 156.07"/>
  </g>
</svg>